<svg width="2064" height="400" viewBox="0 0 2064 400" fill="none" xmlns="http://www.w3.org/2000/svg">
<rect width="2064" height="400" fill="white"/>
<path fill-rule="evenodd" clip-rule="evenodd" d="M428.662 117.199C393.875 116.83 353.073 120.979 310.182 130.095C308.929 130.362 309.195 132.29 310.475 132.244C315.023 132.082 319.623 132 324.27 132C377.082 132 423.97 142.671 453.422 159.169C447.952 143.745 439.489 129.562 428.662 117.199ZM441.397 117.548C452.817 132.261 461.282 149.096 465.952 167.346C478.541 177.019 485.699 188.121 485.699 199.928C485.699 206.534 483.458 212.92 479.278 218.958C478.669 219.837 479.736 221.086 480.664 220.555C517.855 199.261 538.879 175.923 534.627 155.918C529.812 133.266 493.648 119.89 441.397 117.548Z" fill="#66BFFF"/>
<path fill-rule="evenodd" clip-rule="evenodd" d="M251.116 67.6299C226.4 67.6299 206.363 87.6662 206.363 112.382V201.889C206.363 202.18 206.372 202.472 206.39 202.765C206.373 204.162 206.441 205.562 206.598 206.963C209.251 230.747 236.582 248.741 275.09 255.813V112.382C275.09 98.2588 286.54 86.8095 300.663 86.8095H312.175H313.481V86.8243C357.055 87.814 392.086 138.235 392.086 200.289C392.086 262.343 357.055 312.764 313.481 313.753V313.768H312.175H300.663C286.54 313.768 275.09 302.319 275.09 288.195V263.843C248.521 260.259 224.95 253.856 206.363 245.472V288.195C206.363 312.911 226.4 332.948 251.116 332.948H311.851V332.888C313.268 332.928 314.711 332.948 316.179 332.948C395.945 332.948 460.607 273.554 460.607 200.289C460.607 127.023 395.945 67.6299 316.179 67.6299C314.711 67.6299 313.268 67.65 311.851 67.69V67.6299H251.116Z" fill="#1EA1FF"/>
<path fill-rule="evenodd" clip-rule="evenodd" d="M324.429 267.073C329.603 267.073 334.721 266.971 339.771 266.77C341.653 266.696 342.09 269.625 340.248 270.017C224.548 294.61 124.06 283.048 115.802 244.194C111.694 224.867 131.18 202.427 166.045 181.726C166.93 181.201 167.98 182.313 167.469 183.207C164.548 188.319 163 193.656 163 199.145C163 236.661 235.274 267.073 324.429 267.073Z" fill="#66BFFF"/>
<path fill-rule="evenodd" clip-rule="evenodd" d="M1238.45 109.885H1201.88V287.414H1256.87C1272.39 287.332 1286.33 283.756 1298.69 276.684C1311.04 269.612 1320.59 259.655 1327.34 246.811C1334.17 233.968 1337.58 219.296 1337.58 202.795V194.626C1337.58 178.125 1334.13 163.412 1327.22 150.487C1320.31 137.481 1310.68 127.483 1298.32 120.493C1286.05 113.421 1272.11 109.885 1256.5 109.885H1254.06V139.514H1256.5C1270.89 139.514 1281.82 144.188 1289.3 153.535C1296.78 162.802 1300.52 176.458 1300.52 194.504V203.892C1300.35 221.287 1296.49 234.659 1288.93 244.007C1281.37 253.355 1270.44 258.029 1256.13 258.029H1238.45V149.552V139.514V109.885ZM644.415 118.176C653.844 112.333 664.357 108.877 675.954 107.806V138.434C667.469 140.124 660.655 144.67 655.511 152.072C648.845 161.583 645.472 175.564 645.391 194.016V202.673C645.391 220.8 648.723 234.862 655.389 244.86C662.054 254.859 671.646 259.858 684.164 259.858C696.438 259.858 705.868 255.062 712.452 245.47C719.036 235.797 722.369 221.735 722.45 203.283V194.626C722.45 176.011 719.117 161.867 712.452 152.194C707.233 144.62 700.269 140.011 691.561 138.368V107.777C703.274 108.813 713.855 112.279 723.303 118.176C734.846 125.248 743.747 135.449 750.006 148.78C756.346 162.03 759.516 177.352 759.516 194.748V202.673C759.516 220.149 756.428 235.472 750.25 248.64C744.072 261.809 735.212 271.969 723.669 279.123C712.208 286.276 699.04 289.852 684.164 289.852C669.451 289.852 656.324 286.316 644.781 279.244C633.238 272.173 624.297 262.093 617.957 249.006C611.616 235.838 608.406 220.718 608.324 203.648V194.869C608.324 177.393 611.454 162.03 617.713 148.78C624.053 135.449 632.954 125.248 644.415 118.176ZM1363.8 287.414V155.486H1399.16V287.414H1363.8ZM1361.72 121.346C1361.72 116.063 1363.47 111.714 1366.97 108.3C1370.54 104.886 1375.38 103.179 1381.48 103.179C1387.49 103.179 1392.29 104.886 1395.86 108.3C1399.44 111.714 1401.23 116.063 1401.23 121.346C1401.23 126.711 1399.4 131.1 1395.74 134.515C1392.17 137.929 1387.41 139.636 1381.48 139.636C1375.54 139.636 1370.75 137.929 1367.09 134.515C1363.51 131.1 1361.72 126.711 1361.72 121.346ZM902.539 222.669C902.539 242.991 897.906 259.289 888.639 271.563C879.454 283.756 867.017 289.852 851.329 289.852C837.998 289.852 827.228 285.219 819.018 275.952V338.136H783.78V155.486H816.457L817.677 168.411C826.212 158.169 837.348 153.048 851.085 153.048C867.342 153.048 879.982 159.063 889.005 171.093C898.028 183.124 902.539 199.706 902.539 220.84V222.669ZM867.302 220.109C867.302 207.835 865.107 198.365 860.718 191.699C856.409 185.034 850.11 181.701 841.819 181.701C830.764 181.701 823.163 185.928 819.018 194.382V248.396C823.326 257.094 831.008 261.443 842.062 261.443C858.889 261.443 867.302 247.665 867.302 220.109ZM937.899 272.051C950.092 283.918 965.861 289.852 985.207 289.852C996.181 289.852 1006.18 287.78 1015.2 283.634C1024.22 279.407 1031.38 273.554 1036.66 266.076L1019.35 246.689C1011.71 256.525 1001.1 261.443 987.524 261.443C978.745 261.443 971.47 258.842 965.699 253.639C960.009 248.437 956.595 241.528 955.457 232.911H1039.47V218.524C1039.47 197.633 1034.26 181.498 1023.86 170.118C1013.54 158.738 999.351 153.048 981.306 153.048C969.275 153.048 958.546 155.893 949.116 161.583C939.768 167.192 932.534 175.239 927.413 185.725C922.292 196.129 919.731 207.957 919.731 221.206V224.62C919.731 244.373 925.787 260.183 937.899 272.051ZM964.114 188.651C968.503 183.936 974.193 181.579 981.184 181.579C988.662 181.579 994.433 183.733 998.498 188.041C1002.56 192.268 1004.68 198.283 1004.84 206.087V208.891H955.822C957.042 200.112 959.805 193.366 964.114 188.651ZM1092.02 155.486L1093.11 170.727C1102.54 158.941 1115.18 153.048 1131.03 153.048C1145.02 153.048 1155.42 157.153 1162.25 165.363C1169.08 173.572 1172.57 185.847 1172.73 202.185V287.414H1137.5V203.039C1137.5 195.56 1135.87 190.155 1132.62 186.822C1129.37 183.408 1123.96 181.701 1116.4 181.701C1106.49 181.701 1099.05 185.928 1094.09 194.382V287.414H1058.85V155.486H1092.02ZM1437.56 171.581C1427.97 183.936 1423.18 200.234 1423.18 220.475V221.938C1423.18 242.422 1428.05 258.882 1437.81 271.319C1447.64 283.675 1460.49 289.852 1476.34 289.852C1489.59 289.852 1500.28 285.26 1508.41 276.074V283.146C1508.41 292.332 1505.8 299.403 1500.6 304.362C1495.4 309.402 1488.12 311.921 1478.78 311.921C1466.26 311.921 1455.61 307.004 1446.83 297.168L1431.22 318.628C1435.94 324.724 1442.89 329.683 1452.07 333.503C1461.26 337.405 1470.69 339.356 1480.36 339.356C1493.12 339.356 1504.26 337.12 1513.77 332.649C1523.28 328.179 1530.64 321.676 1535.84 313.141C1541.12 304.606 1543.76 294.567 1543.76 283.024V155.486H1511.82L1510.36 167.923C1502.31 158.006 1491.05 153.048 1476.58 153.048C1460.24 153.048 1447.24 159.225 1437.56 171.581ZM1465.61 251.201C1460.81 244.373 1458.41 234.984 1458.41 223.035C1458.41 209.298 1460.81 198.974 1465.61 192.065C1470.49 185.156 1477.15 181.701 1485.6 181.701C1496.09 181.701 1503.69 185.725 1508.41 193.772V249.25C1503.77 257.297 1496.09 261.321 1485.36 261.321C1476.99 261.321 1470.4 257.947 1465.61 251.201ZM1565.83 220.475C1565.83 200.234 1570.63 183.936 1580.22 171.581C1589.89 159.225 1602.9 153.048 1619.24 153.048C1633.71 153.048 1644.97 158.006 1653.01 167.923L1654.48 155.486H1686.42V283.024C1686.42 294.567 1683.78 304.606 1678.5 313.141C1673.29 321.676 1665.94 328.179 1656.43 332.649C1646.92 337.12 1635.78 339.356 1623.02 339.356C1613.35 339.356 1603.92 337.405 1594.73 333.503C1585.55 329.683 1578.6 324.724 1573.88 318.628L1589.49 297.168C1598.27 307.004 1608.92 311.921 1621.43 311.921C1630.78 311.921 1638.06 309.402 1643.26 304.362C1648.46 299.403 1651.06 292.332 1651.06 283.146V276.074C1642.93 285.26 1632.24 289.852 1619 289.852C1603.14 289.852 1590.3 283.675 1580.47 271.319C1570.71 258.882 1565.83 242.422 1565.83 221.938V220.475ZM1601.07 223.035C1601.07 234.984 1603.47 244.373 1608.27 251.201C1613.06 257.947 1619.65 261.321 1628.02 261.321C1638.75 261.321 1646.43 257.297 1651.06 249.25V193.772C1646.35 185.725 1638.75 181.701 1628.26 181.701C1619.81 181.701 1613.14 185.156 1608.27 192.065C1603.47 198.974 1601.07 209.298 1601.07 223.035ZM1727.02 272.051C1739.22 283.918 1754.99 289.852 1774.33 289.852C1785.31 289.852 1795.3 287.78 1804.33 283.634C1813.35 279.407 1820.5 273.554 1825.79 266.076L1808.47 246.689C1800.83 256.525 1790.22 261.443 1776.65 261.443C1767.87 261.443 1760.6 258.842 1754.82 253.639C1749.13 248.437 1745.72 241.528 1744.58 232.911H1828.59V218.524C1828.59 197.633 1823.39 181.498 1812.98 170.118C1802.66 158.738 1788.48 153.048 1770.43 153.048C1758.4 153.048 1747.67 155.893 1738.24 161.583C1728.89 167.192 1721.66 175.239 1716.54 185.725C1711.42 196.129 1708.86 207.957 1708.86 221.206V224.62C1708.86 244.373 1714.91 260.183 1727.02 272.051ZM1753.24 188.651C1757.63 183.936 1763.32 181.579 1770.31 181.579C1777.79 181.579 1783.56 183.733 1787.62 188.041C1791.69 192.268 1793.8 198.283 1793.96 206.087V208.891H1744.95C1746.17 200.112 1748.93 193.366 1753.24 188.651ZM1922.84 188.529C1918.05 187.879 1913.82 187.554 1910.16 187.554C1896.83 187.554 1888.09 192.065 1883.95 201.088V287.414H1848.71V155.486H1882L1882.97 171.215C1890.04 159.104 1899.84 153.048 1912.36 153.048C1916.26 153.048 1919.92 153.576 1923.33 154.633L1922.84 188.529Z" fill="#2D2D2D"/>
</svg>
